# xmcd CD database file
#
# Track frame offsets:
#	150
#	14780
#	36692
#	65267
#
# Disc length: 1052 seconds
#
# Revision: 1
# Processed by: cddbd v1.5.1PL0 Copyright (c) Steve Scherf et al.
# Submitted via: CDex 1.51
#
DISCID=37041a04
DTITLE=REDNEX - COTTON EYE JOE
DYEAR=1995
DGENRE=Country
TTITLE0=Original single version
TTITLE1=MADCOW MIX
TTITLE2=OVERWORKED MIX
TTITLE3=ORIGINAL INSTRUMENTAL
EXTD=YEAR: 1995
EXTT0=
EXTT1=
EXTT2=
EXTT3=
PLAYORDER=
